# xmcd CD database file
#
# Track frame offsets:
#	150
#	15032
#	34022
#	50347
#	66967
#	82152
#	98442
#	116222
#	133392
#	149342
#
# Disc length: 2212 seconds
#
# Revision: 3
# Processed by: cddbd v1.5.2PL0 Copyright (c) Steve Scherf et al.
# Submitted via: CDex 1.51
#
DISCID=8508a20a
DTITLE=Laura Nyro - Walk The Dog and Light The Light
DYEAR=1993
DGENRE=Rock
TTITLE0=Oh Yeah Maybe Baby (The Heebie Jeebies)
TTITLE1=A Woman Of The World
TTITLE2=The Descent Of Luna Rose
TTITLE3=Art Of Love
TTITLE4=Lite A Flame (The Animal Rights Song)
TTITLE5=Louise's Church
TTITLE6=Broken Rainbow
TTITLE7=Walk The Dog and Light The Light (Song Of The Road)
TTITLE8=To A Child
TTITLE9=I'm So Proud - Dedicated To The One I Love
EXTD=Submitted by Joel Siegfried\nEmail: ecto@home.com\nColumbia CK52411\n YEAR: 1993
EXTT0=
EXTT1=
EXTT2=
EXTT3=
EXTT4=
EXTT5=
EXTT6=
EXTT7=
EXTT8=
EXTT9=
PLAYORDER=
